<svg width="208" height="40" viewBox="0 0 208 40" fill="none" xmlns="http://www.w3.org/2000/svg">
<path d="M28 20L12 20" stroke="#3B72B3" stroke-width="4" stroke-linecap="round"/>
<path d="M20 12L20 28" stroke="#3B72B3" stroke-width="4" stroke-linecap="round"/>
<path d="M58.8267 27H56.4972L61.7315 12.4545H64.267L69.5014 27H67.1719L63.0597 15.0966H62.946L58.8267 27ZM59.2173 21.304H66.7741V23.1506H59.2173V21.304ZM75.3395 27.2131C74.4588 27.2131 73.6728 26.9882 72.9815 26.5384C72.295 26.0838 71.7552 25.4375 71.3622 24.5994C70.974 23.7566 70.7798 22.7457 70.7798 21.5668C70.7798 20.3878 70.9763 19.3793 71.3693 18.5412C71.767 17.7031 72.3116 17.0616 73.0028 16.6165C73.6941 16.1714 74.4777 15.9489 75.3537 15.9489C76.0308 15.9489 76.5753 16.0625 76.9872 16.2898C77.4039 16.5123 77.7259 16.7727 77.9531 17.071C78.1851 17.3693 78.3651 17.6321 78.4929 17.8594H78.6207V12.4545H80.7443V27H78.6705V25.3026H78.4929C78.3651 25.5346 78.1804 25.7997 77.9389 26.098C77.7022 26.3963 77.3755 26.6567 76.9588 26.8793C76.5421 27.1018 76.0024 27.2131 75.3395 27.2131ZM75.8082 25.402C76.419 25.402 76.9351 25.241 77.3565 24.919C77.7827 24.5923 78.1046 24.1402 78.3224 23.5625C78.545 22.9848 78.6562 22.3125 78.6562 21.5455C78.6562 20.7879 78.5473 20.125 78.3295 19.5568C78.1117 18.9886 77.7921 18.5459 77.3707 18.2287C76.9493 17.9115 76.4285 17.7528 75.8082 17.7528C75.169 17.7528 74.6364 17.9186 74.2102 18.25C73.7841 18.5814 73.4621 19.0336 73.2443 19.6065C73.0313 20.1795 72.9247 20.8258 72.9247 21.5455C72.9247 22.2746 73.0336 22.9304 73.2514 23.5128C73.4692 24.0952 73.7912 24.5568 74.2173 24.8977C74.6482 25.2339 75.1785 25.402 75.8082 25.402ZM87.859 27.2131C86.9783 27.2131 86.1924 26.9882 85.5011 26.5384C84.8145 26.0838 84.2747 25.4375 83.8817 24.5994C83.4935 23.7566 83.2994 22.7457 83.2994 21.5668C83.2994 20.3878 83.4959 19.3793 83.8888 18.5412C84.2866 17.7031 84.8311 17.0616 85.5224 16.6165C86.2137 16.1714 86.9973 15.9489 87.8732 15.9489C88.5503 15.9489 89.0948 16.0625 89.5067 16.2898C89.9234 16.5123 90.2454 16.7727 90.4727 17.071C90.7047 17.3693 90.8846 17.6321 91.0124 17.8594H91.1403V12.4545H93.2638V27H91.19V25.3026H91.0124C90.8846 25.5346 90.6999 25.7997 90.4585 26.098C90.2217 26.3963 89.895 26.6567 89.4783 26.8793C89.0617 27.1018 88.5219 27.2131 87.859 27.2131ZM88.3278 25.402C88.9386 25.402 89.4547 25.241 89.8761 24.919C90.3022 24.5923 90.6242 24.1402 90.842 23.5625C91.0645 22.9848 91.1758 22.3125 91.1758 21.5455C91.1758 20.7879 91.0669 20.125 90.8491 19.5568C90.6313 18.9886 90.3117 18.5459 89.8903 18.2287C89.4689 17.9115 88.948 17.7528 88.3278 17.7528C87.6886 17.7528 87.1559 17.9186 86.7298 18.25C86.3036 18.5814 85.9817 19.0336 85.7638 19.6065C85.5508 20.1795 85.4442 20.8258 85.4442 21.5455C85.4442 22.2746 85.5531 22.9304 85.771 23.5128C85.9888 24.0952 86.3107 24.5568 86.7369 24.8977C87.1677 25.2339 87.698 25.402 88.3278 25.402ZM105.672 27.2131C104.791 27.2131 104.005 26.9882 103.314 26.5384C102.627 26.0838 102.087 25.4375 101.694 24.5994C101.306 23.7566 101.112 22.7457 101.112 21.5668C101.112 20.3878 101.308 19.3793 101.701 18.5412C102.099 17.7031 102.644 17.0616 103.335 16.6165C104.026 16.1714 104.81 15.9489 105.686 15.9489C106.363 15.9489 106.907 16.0625 107.319 16.2898C107.736 16.5123 108.058 16.7727 108.285 17.071C108.517 17.3693 108.697 17.6321 108.825 17.8594H108.953V12.4545H111.076V27H109.002V25.3026H108.825C108.697 25.5346 108.512 25.7997 108.271 26.098C108.034 26.3963 107.708 26.6567 107.291 26.8793C106.874 27.1018 106.334 27.2131 105.672 27.2131ZM106.14 25.402C106.751 25.402 107.267 25.241 107.689 24.919C108.115 24.5923 108.437 24.1402 108.654 23.5625C108.877 22.9848 108.988 22.3125 108.988 21.5455C108.988 20.7879 108.879 20.125 108.662 19.5568C108.444 18.9886 108.124 18.5459 107.703 18.2287C107.281 17.9115 106.761 17.7528 106.14 17.7528C105.501 17.7528 104.968 17.9186 104.542 18.25C104.116 18.5814 103.794 19.0336 103.576 19.6065C103.363 20.1795 103.257 20.8258 103.257 21.5455C103.257 22.2746 103.366 22.9304 103.583 23.5128C103.801 24.0952 104.123 24.5568 104.549 24.8977C104.98 25.2339 105.511 25.402 106.14 25.402ZM118.809 27.2202C117.734 27.2202 116.808 26.9905 116.032 26.5312C115.26 26.0672 114.664 25.4162 114.242 24.5781C113.826 23.7353 113.617 22.7481 113.617 21.6165C113.617 20.4991 113.826 19.5142 114.242 18.6619C114.664 17.8097 115.251 17.1444 116.004 16.6662C116.761 16.188 117.647 15.9489 118.66 15.9489C119.275 15.9489 119.872 16.0507 120.45 16.2543C121.027 16.4579 121.546 16.7775 122.005 17.2131C122.464 17.6487 122.826 18.2145 123.092 18.9105C123.357 19.6018 123.489 20.4422 123.489 21.4318V22.1847H114.817V20.5938H121.408C121.408 20.035 121.295 19.5402 121.067 19.1094C120.84 18.6738 120.521 18.3305 120.109 18.0795C119.701 17.8286 119.223 17.7031 118.674 17.7031C118.077 17.7031 117.557 17.8499 117.112 18.1435C116.671 18.4323 116.33 18.8111 116.089 19.2798C115.852 19.7438 115.734 20.2481 115.734 20.7926V22.0355C115.734 22.7647 115.862 23.3849 116.117 23.8963C116.378 24.4077 116.74 24.7983 117.204 25.0682C117.668 25.3333 118.21 25.4659 118.83 25.4659C119.233 25.4659 119.6 25.4091 119.931 25.2955C120.263 25.1771 120.549 25.0019 120.79 24.7699C121.032 24.5379 121.217 24.2514 121.344 23.9105L123.354 24.2727C123.193 24.8646 122.905 25.383 122.488 25.8281C122.076 26.2685 121.558 26.6117 120.933 26.858C120.312 27.0994 119.604 27.2202 118.809 27.2202ZM134.02 18.7543L132.096 19.0952C132.015 18.849 131.887 18.6146 131.712 18.392C131.542 18.1695 131.31 17.9872 131.016 17.8452C130.722 17.7031 130.355 17.6321 129.915 17.6321C129.314 17.6321 128.812 17.767 128.409 18.0369C128.007 18.3021 127.806 18.6454 127.806 19.0668C127.806 19.4313 127.941 19.7249 128.211 19.9474C128.48 20.17 128.916 20.3523 129.517 20.4943L131.25 20.892C132.254 21.1241 133.002 21.4815 133.495 21.9645C133.987 22.4474 134.233 23.0748 134.233 23.8466C134.233 24.5 134.044 25.0824 133.665 25.5938C133.291 26.1004 132.768 26.4981 132.096 26.7869C131.428 27.0758 130.654 27.2202 129.773 27.2202C128.551 27.2202 127.555 26.9598 126.783 26.4389C126.011 25.9134 125.538 25.1676 125.363 24.2017L127.415 23.8892C127.543 24.4242 127.806 24.8291 128.203 25.1037C128.601 25.3736 129.12 25.5085 129.759 25.5085C130.455 25.5085 131.011 25.3641 131.428 25.0753C131.845 24.7817 132.053 24.4242 132.053 24.0028C132.053 23.6619 131.925 23.3755 131.669 23.1435C131.418 22.9115 131.033 22.7363 130.512 22.6179L128.665 22.2131C127.647 21.9811 126.894 21.6117 126.407 21.1051C125.924 20.5985 125.682 19.9569 125.682 19.1804C125.682 18.5365 125.862 17.973 126.222 17.4901C126.582 17.0071 127.079 16.6307 127.713 16.3608C128.348 16.0862 129.075 15.9489 129.894 15.9489C131.073 15.9489 132.001 16.2045 132.678 16.7159C133.355 17.2225 133.802 17.902 134.02 18.7543ZM141.163 27.2202C140.107 27.2202 139.198 26.9811 138.436 26.5028C137.679 26.0199 137.096 25.3546 136.689 24.5071C136.282 23.6596 136.078 22.6889 136.078 21.5952C136.078 20.4872 136.286 19.5095 136.703 18.6619C137.12 17.8097 137.707 17.1444 138.464 16.6662C139.222 16.188 140.115 15.9489 141.142 15.9489C141.971 15.9489 142.709 16.1027 143.358 16.4105C144.007 16.7135 144.53 17.1397 144.928 17.6889C145.33 18.2382 145.569 18.8797 145.645 19.6136H143.578C143.464 19.1023 143.204 18.6619 142.797 18.2926C142.394 17.9233 141.855 17.7386 141.178 17.7386C140.586 17.7386 140.067 17.8949 139.622 18.2074C139.182 18.5152 138.839 18.9555 138.592 19.5284C138.346 20.0966 138.223 20.7689 138.223 21.5455C138.223 22.3409 138.344 23.0275 138.585 23.6051C138.827 24.1828 139.168 24.6302 139.608 24.9474C140.053 25.2647 140.576 25.4233 141.178 25.4233C141.58 25.4233 141.945 25.3499 142.271 25.2031C142.603 25.0516 142.88 24.8362 143.102 24.5568C143.33 24.2775 143.488 23.9413 143.578 23.5483H145.645C145.569 24.2538 145.339 24.8835 144.956 25.4375C144.572 25.9915 144.059 26.4271 143.415 26.7443C142.776 27.0616 142.025 27.2202 141.163 27.2202ZM147.916 27V16.0909H149.968V17.8239H150.082C150.281 17.2367 150.631 16.7751 151.133 16.4389C151.64 16.098 152.213 15.9276 152.852 15.9276C152.984 15.9276 153.141 15.9323 153.321 15.9418C153.505 15.9512 153.65 15.9631 153.754 15.9773V18.0085C153.669 17.9848 153.517 17.9588 153.299 17.9304C153.082 17.8973 152.864 17.8807 152.646 17.8807C152.144 17.8807 151.697 17.9872 151.304 18.2003C150.915 18.4086 150.608 18.6998 150.38 19.0739C150.153 19.4432 150.039 19.8646 150.039 20.3381V27H147.916ZM155.592 27V16.0909H157.715V27H155.592ZM156.664 14.4077C156.295 14.4077 155.978 14.2846 155.712 14.0384C155.452 13.7874 155.322 13.4891 155.322 13.1435C155.322 12.7931 155.452 12.4948 155.712 12.2486C155.978 11.9976 156.295 11.8722 156.664 11.8722C157.033 11.8722 157.348 11.9976 157.609 12.2486C157.874 12.4948 158.006 12.7931 158.006 13.1435C158.006 13.4891 157.874 13.7874 157.609 14.0384C157.348 14.2846 157.033 14.4077 156.664 14.4077ZM160.572 31.0909V16.0909H162.646V17.8594H162.824C162.947 17.6321 163.124 17.3693 163.356 17.071C163.588 16.7727 163.91 16.5123 164.322 16.2898C164.734 16.0625 165.279 15.9489 165.956 15.9489C166.836 15.9489 167.622 16.1714 168.314 16.6165C169.005 17.0616 169.547 17.7031 169.94 18.5412C170.338 19.3793 170.537 20.3878 170.537 21.5668C170.537 22.7457 170.34 23.7566 169.947 24.5994C169.554 25.4375 169.014 26.0838 168.328 26.5384C167.641 26.9882 166.858 27.2131 165.977 27.2131C165.314 27.2131 164.772 27.1018 164.35 26.8793C163.934 26.6567 163.607 26.3963 163.37 26.098C163.134 25.7997 162.951 25.5346 162.824 25.3026H162.696V31.0909H160.572ZM162.653 21.5455C162.653 22.3125 162.764 22.9848 162.987 23.5625C163.209 24.1402 163.531 24.5923 163.953 24.919C164.374 25.241 164.89 25.402 165.501 25.402C166.136 25.402 166.666 25.2339 167.092 24.8977C167.518 24.5568 167.84 24.0952 168.058 23.5128C168.28 22.9304 168.392 22.2746 168.392 21.5455C168.392 20.8258 168.283 20.1795 168.065 19.6065C167.852 19.0336 167.53 18.5814 167.099 18.25C166.673 17.9186 166.14 17.7528 165.501 17.7528C164.886 17.7528 164.365 17.9115 163.939 18.2287C163.517 18.5459 163.198 18.9886 162.98 19.5568C162.762 20.125 162.653 20.7879 162.653 21.5455ZM178.008 16.0909V17.7955H172.049V16.0909H178.008ZM173.647 13.4773H175.771V23.7969C175.771 24.2088 175.833 24.5189 175.956 24.7273C176.079 24.9309 176.237 25.0705 176.431 25.1463C176.63 25.2173 176.846 25.2528 177.078 25.2528C177.248 25.2528 177.397 25.241 177.525 25.2173C177.653 25.1937 177.752 25.1747 177.824 25.1605L178.207 26.9148C178.084 26.9621 177.909 27.0095 177.681 27.0568C177.454 27.1089 177.17 27.1373 176.829 27.142C176.27 27.1515 175.75 27.0521 175.267 26.8438C174.784 26.6354 174.393 26.3134 174.095 25.8778C173.797 25.4422 173.647 24.8954 173.647 24.2372V13.4773ZM180.357 27V16.0909H182.481V27H180.357ZM181.43 14.4077C181.06 14.4077 180.743 14.2846 180.478 14.0384C180.218 13.7874 180.087 13.4891 180.087 13.1435C180.087 12.7931 180.218 12.4948 180.478 12.2486C180.743 11.9976 181.06 11.8722 181.43 11.8722C181.799 11.8722 182.114 11.9976 182.374 12.2486C182.639 12.4948 182.772 12.7931 182.772 13.1435C182.772 13.4891 182.639 13.7874 182.374 14.0384C182.114 14.2846 181.799 14.4077 181.43 14.4077ZM189.933 27.2202C188.91 27.2202 188.018 26.9858 187.255 26.517C186.493 26.0483 185.901 25.3925 185.48 24.5497C185.058 23.7069 184.848 22.7221 184.848 21.5952C184.848 20.4635 185.058 19.474 185.48 18.6264C185.901 17.7789 186.493 17.1207 187.255 16.652C188.018 16.1832 188.91 15.9489 189.933 15.9489C190.956 15.9489 191.848 16.1832 192.61 16.652C193.373 17.1207 193.965 17.7789 194.386 18.6264C194.807 19.474 195.018 20.4635 195.018 21.5952C195.018 22.7221 194.807 23.7069 194.386 24.5497C193.965 25.3925 193.373 26.0483 192.61 26.517C191.848 26.9858 190.956 27.2202 189.933 27.2202ZM189.94 25.4375C190.603 25.4375 191.152 25.2623 191.588 24.9119C192.023 24.5616 192.345 24.0952 192.554 23.5128C192.767 22.9304 192.873 22.2888 192.873 21.5881C192.873 20.892 192.767 20.2528 192.554 19.6705C192.345 19.0833 192.023 18.6122 191.588 18.2571C191.152 17.902 190.603 17.7244 189.94 17.7244C189.272 17.7244 188.718 17.902 188.278 18.2571C187.842 18.6122 187.518 19.0833 187.305 19.6705C187.097 20.2528 186.993 20.892 186.993 21.5881C186.993 22.2888 187.097 22.9304 187.305 23.5128C187.518 24.0952 187.842 24.5616 188.278 24.9119C188.718 25.2623 189.272 25.4375 189.94 25.4375ZM199.512 20.5227V27H197.388V16.0909H199.427V17.8665H199.562C199.813 17.2888 200.206 16.8248 200.741 16.4744C201.281 16.1241 201.96 15.9489 202.779 15.9489C203.522 15.9489 204.174 16.1051 204.732 16.4176C205.291 16.7254 205.724 17.1847 206.032 17.7955C206.34 18.4062 206.494 19.1615 206.494 20.0611V27H204.37V20.3168C204.37 19.526 204.164 18.9081 203.752 18.4631C203.34 18.0133 202.774 17.7884 202.055 17.7884C201.562 17.7884 201.124 17.8949 200.741 18.108C200.362 18.321 200.061 18.6335 199.839 19.0455C199.621 19.4527 199.512 19.9451 199.512 20.5227Z" fill="#3B72B3"/>
</svg>
