<svg width="319" height="68" viewBox="0 0 319 68" fill="none" xmlns="http://www.w3.org/2000/svg">
<g filter="url(#filter0_d_87_329)">
<path d="M61.2002 30L6.80019 30" stroke="#3B72B3" stroke-width="4" stroke-linecap="round"/>
<path d="M34 2.80005V57.2001" stroke="#3B72B3" stroke-width="4" stroke-linecap="round"/>
<path d="M114.341 17.7273V41H111.114L99.2841 23.9318H99.0682V41H95.5568V17.7273H98.8068L110.648 34.8182H110.864V17.7273H114.341ZM126.713 41.3523C124.993 41.3523 123.512 40.9848 122.27 40.25C121.035 39.5076 120.08 38.4659 119.406 37.125C118.74 35.7765 118.406 34.197 118.406 32.3864C118.406 30.5985 118.74 29.0227 119.406 27.6591C120.08 26.2955 121.02 25.2311 122.224 24.4659C123.437 23.7008 124.853 23.3182 126.474 23.3182C127.459 23.3182 128.414 23.4811 129.338 23.8068C130.262 24.1326 131.092 24.6439 131.827 25.3409C132.562 26.0379 133.141 26.9432 133.565 28.0568C133.99 29.1629 134.202 30.5076 134.202 32.0909V33.2955H120.327V30.75H130.872C130.872 29.8561 130.69 29.0644 130.327 28.375C129.963 27.678 129.452 27.1288 128.793 26.7273C128.141 26.3258 127.376 26.125 126.497 26.125C125.543 26.125 124.709 26.3598 123.997 26.8295C123.293 27.2917 122.747 27.8977 122.361 28.6477C121.982 29.3902 121.793 30.197 121.793 31.0682V33.0568C121.793 34.2235 121.997 35.2159 122.406 36.0341C122.823 36.8523 123.402 37.4773 124.145 37.9091C124.887 38.3333 125.755 38.5455 126.747 38.5455C127.391 38.5455 127.978 38.4545 128.509 38.2727C129.039 38.0833 129.497 37.803 129.884 37.4318C130.27 37.0606 130.565 36.6023 130.77 36.0568L133.986 36.6364C133.728 37.5833 133.266 38.4129 132.599 39.125C131.94 39.8295 131.111 40.3788 130.111 40.7727C129.118 41.1591 127.986 41.3523 126.713 41.3523ZM141.724 41L136.588 23.5455H140.099L143.52 36.3636H143.69L147.122 23.5455H150.634L154.043 36.3068H154.213L157.611 23.5455H161.122L155.997 41H152.531L148.986 28.3977H148.724L145.179 41H141.724ZM180.338 41.3523C178.618 41.3523 177.137 40.9848 175.895 40.25C174.66 39.5076 173.705 38.4659 173.031 37.125C172.365 35.7765 172.031 34.197 172.031 32.3864C172.031 30.5985 172.365 29.0227 173.031 27.6591C173.705 26.2955 174.645 25.2311 175.849 24.4659C177.062 23.7008 178.478 23.3182 180.099 23.3182C181.084 23.3182 182.039 23.4811 182.963 23.8068C183.887 24.1326 184.717 24.6439 185.452 25.3409C186.187 26.0379 186.766 26.9432 187.19 28.0568C187.615 29.1629 187.827 30.5076 187.827 32.0909V33.2955H173.952V30.75H184.497C184.497 29.8561 184.315 29.0644 183.952 28.375C183.588 27.678 183.077 27.1288 182.418 26.7273C181.766 26.3258 181.001 26.125 180.122 26.125C179.168 26.125 178.334 26.3598 177.622 26.8295C176.918 27.2917 176.372 27.8977 175.986 28.6477C175.607 29.3902 175.418 30.197 175.418 31.0682V33.0568C175.418 34.2235 175.622 35.2159 176.031 36.0341C176.448 36.8523 177.027 37.4773 177.77 37.9091C178.512 38.3333 179.38 38.5455 180.372 38.5455C181.016 38.5455 181.603 38.4545 182.134 38.2727C182.664 38.0833 183.122 37.803 183.509 37.4318C183.895 37.0606 184.19 36.6023 184.395 36.0568L187.611 36.6364C187.353 37.5833 186.891 38.4129 186.224 39.125C185.565 39.8295 184.736 40.3788 183.736 40.7727C182.743 41.1591 181.611 41.3523 180.338 41.3523ZM193.872 23.5455L197.724 30.3409L201.611 23.5455H205.327L199.884 32.2727L205.372 41H201.656L197.724 34.4773L193.804 41H190.077L195.509 32.2727L190.145 23.5455H193.872ZM215.651 41.3523C213.931 41.3523 212.45 40.9848 211.207 40.25C209.973 39.5076 209.018 38.4659 208.344 37.125C207.677 35.7765 207.344 34.197 207.344 32.3864C207.344 30.5985 207.677 29.0227 208.344 27.6591C209.018 26.2955 209.957 25.2311 211.162 24.4659C212.374 23.7008 213.791 23.3182 215.412 23.3182C216.397 23.3182 217.351 23.4811 218.276 23.8068C219.2 24.1326 220.029 24.6439 220.764 25.3409C221.499 26.0379 222.079 26.9432 222.503 28.0568C222.927 29.1629 223.139 30.5076 223.139 32.0909V33.2955H209.264V30.75H219.81C219.81 29.8561 219.628 29.0644 219.264 28.375C218.901 27.678 218.389 27.1288 217.73 26.7273C217.079 26.3258 216.313 26.125 215.435 26.125C214.48 26.125 213.647 26.3598 212.935 26.8295C212.23 27.2917 211.685 27.8977 211.298 28.6477C210.92 29.3902 210.73 30.197 210.73 31.0682V33.0568C210.73 34.2235 210.935 35.2159 211.344 36.0341C211.76 36.8523 212.34 37.4773 213.082 37.9091C213.825 38.3333 214.692 38.5455 215.685 38.5455C216.329 38.5455 216.916 38.4545 217.446 38.2727C217.976 38.0833 218.435 37.803 218.821 37.4318C219.207 37.0606 219.503 36.6023 219.707 36.0568L222.923 36.6364C222.666 37.5833 222.204 38.4129 221.537 39.125C220.878 39.8295 220.048 40.3788 219.048 40.7727C218.056 41.1591 216.923 41.3523 215.651 41.3523ZM226.909 41V23.5455H230.193V26.3182H230.375C230.693 25.3788 231.254 24.6402 232.057 24.1023C232.867 23.5568 233.784 23.2841 234.807 23.2841C235.019 23.2841 235.269 23.2917 235.557 23.3068C235.852 23.322 236.083 23.3409 236.25 23.3636V26.6136C236.114 26.5758 235.871 26.5341 235.523 26.4886C235.174 26.4356 234.826 26.4091 234.477 26.4091C233.674 26.4091 232.958 26.5795 232.33 26.9205C231.708 27.2538 231.216 27.7197 230.852 28.3182C230.489 28.9091 230.307 29.5833 230.307 30.3409V41H226.909ZM245.918 41.3523C244.228 41.3523 242.774 40.9697 241.554 40.2045C240.342 39.4318 239.41 38.3674 238.759 37.0114C238.107 35.6553 237.781 34.1023 237.781 32.3523C237.781 30.5795 238.115 29.0152 238.781 27.6591C239.448 26.2955 240.387 25.2311 241.599 24.4659C242.812 23.7008 244.24 23.3182 245.884 23.3182C247.209 23.3182 248.391 23.5644 249.429 24.0568C250.467 24.5417 251.304 25.2235 251.94 26.1023C252.584 26.9811 252.967 28.0076 253.088 29.1818H249.781C249.599 28.3636 249.183 27.6591 248.531 27.0682C247.887 26.4773 247.024 26.1818 245.94 26.1818C244.993 26.1818 244.164 26.4318 243.452 26.9318C242.747 27.4242 242.198 28.1288 241.804 29.0455C241.41 29.9545 241.213 31.0303 241.213 32.2727C241.213 33.5455 241.406 34.6439 241.793 35.5682C242.179 36.4924 242.724 37.2083 243.429 37.7159C244.141 38.2235 244.978 38.4773 245.94 38.4773C246.584 38.4773 247.168 38.3598 247.69 38.125C248.221 37.8826 248.664 37.5379 249.02 37.0909C249.384 36.6439 249.637 36.1061 249.781 35.4773H253.088C252.967 36.6061 252.599 37.6136 251.986 38.5C251.372 39.3864 250.55 40.0833 249.52 40.5909C248.497 41.0985 247.296 41.3523 245.918 41.3523ZM256.722 41V23.5455H260.119V41H256.722ZM258.438 20.8523C257.847 20.8523 257.339 20.6553 256.915 20.2614C256.498 19.8598 256.29 19.3826 256.29 18.8295C256.29 18.2689 256.498 17.7917 256.915 17.3977C257.339 16.9962 257.847 16.7955 258.438 16.7955C259.028 16.7955 259.532 16.9962 259.949 17.3977C260.373 17.7917 260.585 18.2689 260.585 18.8295C260.585 19.3826 260.373 19.8598 259.949 20.2614C259.532 20.6553 259.028 20.8523 258.438 20.8523ZM277.77 27.8068L274.69 28.3523C274.562 27.9583 274.357 27.5833 274.077 27.2273C273.804 26.8712 273.433 26.5795 272.963 26.3523C272.493 26.125 271.906 26.0114 271.202 26.0114C270.24 26.0114 269.437 26.2273 268.793 26.6591C268.149 27.0833 267.827 27.6326 267.827 28.3068C267.827 28.8902 268.043 29.3598 268.474 29.7159C268.906 30.072 269.603 30.3636 270.565 30.5909L273.338 31.2273C274.944 31.5985 276.141 32.1705 276.929 32.9432C277.717 33.7159 278.111 34.7197 278.111 35.9545C278.111 37 277.808 37.9318 277.202 38.75C276.603 39.5606 275.766 40.197 274.69 40.6591C273.622 41.1212 272.384 41.3523 270.974 41.3523C269.02 41.3523 267.425 40.9356 266.19 40.1023C264.955 39.2614 264.198 38.0682 263.918 36.5227L267.202 36.0227C267.406 36.8788 267.827 37.5265 268.463 37.9659C269.099 38.3977 269.929 38.6136 270.952 38.6136C272.065 38.6136 272.955 38.3826 273.622 37.9205C274.289 37.4508 274.622 36.8788 274.622 36.2045C274.622 35.6591 274.418 35.2008 274.009 34.8295C273.607 34.4583 272.99 34.178 272.156 33.9886L269.202 33.3409C267.573 32.9697 266.368 32.3788 265.588 31.5682C264.815 30.7576 264.429 29.7311 264.429 28.4886C264.429 27.4583 264.717 26.5568 265.293 25.7841C265.868 25.0114 266.664 24.4091 267.679 23.9773C268.694 23.5379 269.857 23.3182 271.168 23.3182C273.054 23.3182 274.539 23.7273 275.622 24.5455C276.705 25.3561 277.421 26.4432 277.77 27.8068ZM289.369 41.3523C287.65 41.3523 286.169 40.9848 284.926 40.25C283.691 39.5076 282.737 38.4659 282.062 37.125C281.396 35.7765 281.062 34.197 281.062 32.3864C281.062 30.5985 281.396 29.0227 282.062 27.6591C282.737 26.2955 283.676 25.2311 284.881 24.4659C286.093 23.7008 287.509 23.3182 289.131 23.3182C290.116 23.3182 291.07 23.4811 291.994 23.8068C292.919 24.1326 293.748 24.6439 294.483 25.3409C295.218 26.0379 295.797 26.9432 296.222 28.0568C296.646 29.1629 296.858 30.5076 296.858 32.0909V33.2955H282.983V30.75H293.528C293.528 29.8561 293.347 29.0644 292.983 28.375C292.619 27.678 292.108 27.1288 291.449 26.7273C290.797 26.3258 290.032 26.125 289.153 26.125C288.199 26.125 287.366 26.3598 286.653 26.8295C285.949 27.2917 285.403 27.8977 285.017 28.6477C284.638 29.3902 284.449 30.197 284.449 31.0682V33.0568C284.449 34.2235 284.653 35.2159 285.062 36.0341C285.479 36.8523 286.059 37.4773 286.801 37.9091C287.544 38.3333 288.411 38.5455 289.403 38.5455C290.047 38.5455 290.634 38.4545 291.165 38.2727C291.695 38.0833 292.153 37.803 292.54 37.4318C292.926 37.0606 293.222 36.6023 293.426 36.0568L296.642 36.6364C296.384 37.5833 295.922 38.4129 295.256 39.125C294.597 39.8295 293.767 40.3788 292.767 40.7727C291.775 41.1591 290.642 41.3523 289.369 41.3523Z" fill="#3B72B3"/>
</g>
<defs>
<filter id="filter0_d_87_329" x="0.800293" y="0.800049" width="322.2" height="66.4" filterUnits="userSpaceOnUse" color-interpolation-filters="sRGB">
<feFlood flood-opacity="0" result="BackgroundImageFix"/>
<feColorMatrix in="SourceAlpha" type="matrix" values="0 0 0 0 0 0 0 0 0 0 0 0 0 0 0 0 0 0 127 0" result="hardAlpha"/>
<feOffset dy="4"/>
<feGaussianBlur stdDeviation="2"/>
<feComposite in2="hardAlpha" operator="out"/>
<feColorMatrix type="matrix" values="0 0 0 0 0 0 0 0 0 0 0 0 0 0 0 0 0 0 0.25 0"/>
<feBlend mode="normal" in2="BackgroundImageFix" result="effect1_dropShadow_87_329"/>
<feBlend mode="normal" in="SourceGraphic" in2="effect1_dropShadow_87_329" result="shape"/>
</filter>
</defs>
</svg>
