<svg width="315" height="60" viewBox="0 0 315 60" fill="none" xmlns="http://www.w3.org/2000/svg">
<path d="M57.2002 30L2.80019 30" stroke="#3B72B3" stroke-width="4" stroke-linecap="round"/>
<path d="M30 2.80005L30 57.2001" stroke="#3B72B3" stroke-width="4" stroke-linecap="round"/>
<path d="M110.341 17.7273V41H107.114L95.2841 23.9318H95.0682V41H91.5568V17.7273H94.8068L106.648 34.8182H106.864V17.7273H110.341ZM122.713 41.3523C120.993 41.3523 119.512 40.9848 118.27 40.25C117.035 39.5076 116.08 38.4659 115.406 37.125C114.74 35.7765 114.406 34.197 114.406 32.3864C114.406 30.5985 114.74 29.0227 115.406 27.6591C116.08 26.2955 117.02 25.2311 118.224 24.4659C119.437 23.7008 120.853 23.3182 122.474 23.3182C123.459 23.3182 124.414 23.4811 125.338 23.8068C126.262 24.1326 127.092 24.6439 127.827 25.3409C128.562 26.0379 129.141 26.9432 129.565 28.0568C129.99 29.1629 130.202 30.5076 130.202 32.0909V33.2955H116.327V30.75H126.872C126.872 29.8561 126.69 29.0644 126.327 28.375C125.963 27.678 125.452 27.1288 124.793 26.7273C124.141 26.3258 123.376 26.125 122.497 26.125C121.543 26.125 120.709 26.3598 119.997 26.8295C119.293 27.2917 118.747 27.8977 118.361 28.6477C117.982 29.3902 117.793 30.197 117.793 31.0682V33.0568C117.793 34.2235 117.997 35.2159 118.406 36.0341C118.823 36.8523 119.402 37.4773 120.145 37.9091C120.887 38.3333 121.755 38.5455 122.747 38.5455C123.391 38.5455 123.978 38.4545 124.509 38.2727C125.039 38.0833 125.497 37.803 125.884 37.4318C126.27 37.0606 126.565 36.6023 126.77 36.0568L129.986 36.6364C129.728 37.5833 129.266 38.4129 128.599 39.125C127.94 39.8295 127.111 40.3788 126.111 40.7727C125.118 41.1591 123.986 41.3523 122.713 41.3523ZM137.724 41L132.588 23.5455H136.099L139.52 36.3636H139.69L143.122 23.5455H146.634L150.043 36.3068H150.213L153.611 23.5455H157.122L151.997 41H148.531L144.986 28.3977H144.724L141.179 41H137.724ZM176.338 41.3523C174.618 41.3523 173.137 40.9848 171.895 40.25C170.66 39.5076 169.705 38.4659 169.031 37.125C168.365 35.7765 168.031 34.197 168.031 32.3864C168.031 30.5985 168.365 29.0227 169.031 27.6591C169.705 26.2955 170.645 25.2311 171.849 24.4659C173.062 23.7008 174.478 23.3182 176.099 23.3182C177.084 23.3182 178.039 23.4811 178.963 23.8068C179.887 24.1326 180.717 24.6439 181.452 25.3409C182.187 26.0379 182.766 26.9432 183.19 28.0568C183.615 29.1629 183.827 30.5076 183.827 32.0909V33.2955H169.952V30.75H180.497C180.497 29.8561 180.315 29.0644 179.952 28.375C179.588 27.678 179.077 27.1288 178.418 26.7273C177.766 26.3258 177.001 26.125 176.122 26.125C175.168 26.125 174.334 26.3598 173.622 26.8295C172.918 27.2917 172.372 27.8977 171.986 28.6477C171.607 29.3902 171.418 30.197 171.418 31.0682V33.0568C171.418 34.2235 171.622 35.2159 172.031 36.0341C172.448 36.8523 173.027 37.4773 173.77 37.9091C174.512 38.3333 175.38 38.5455 176.372 38.5455C177.016 38.5455 177.603 38.4545 178.134 38.2727C178.664 38.0833 179.122 37.803 179.509 37.4318C179.895 37.0606 180.19 36.6023 180.395 36.0568L183.611 36.6364C183.353 37.5833 182.891 38.4129 182.224 39.125C181.565 39.8295 180.736 40.3788 179.736 40.7727C178.743 41.1591 177.611 41.3523 176.338 41.3523ZM189.872 23.5455L193.724 30.3409L197.611 23.5455H201.327L195.884 32.2727L201.372 41H197.656L193.724 34.4773L189.804 41H186.077L191.509 32.2727L186.145 23.5455H189.872ZM211.651 41.3523C209.931 41.3523 208.45 40.9848 207.207 40.25C205.973 39.5076 205.018 38.4659 204.344 37.125C203.677 35.7765 203.344 34.197 203.344 32.3864C203.344 30.5985 203.677 29.0227 204.344 27.6591C205.018 26.2955 205.957 25.2311 207.162 24.4659C208.374 23.7008 209.791 23.3182 211.412 23.3182C212.397 23.3182 213.351 23.4811 214.276 23.8068C215.2 24.1326 216.029 24.6439 216.764 25.3409C217.499 26.0379 218.079 26.9432 218.503 28.0568C218.927 29.1629 219.139 30.5076 219.139 32.0909V33.2955H205.264V30.75H215.81C215.81 29.8561 215.628 29.0644 215.264 28.375C214.901 27.678 214.389 27.1288 213.73 26.7273C213.079 26.3258 212.313 26.125 211.435 26.125C210.48 26.125 209.647 26.3598 208.935 26.8295C208.23 27.2917 207.685 27.8977 207.298 28.6477C206.92 29.3902 206.73 30.197 206.73 31.0682V33.0568C206.73 34.2235 206.935 35.2159 207.344 36.0341C207.76 36.8523 208.34 37.4773 209.082 37.9091C209.825 38.3333 210.692 38.5455 211.685 38.5455C212.329 38.5455 212.916 38.4545 213.446 38.2727C213.976 38.0833 214.435 37.803 214.821 37.4318C215.207 37.0606 215.503 36.6023 215.707 36.0568L218.923 36.6364C218.666 37.5833 218.204 38.4129 217.537 39.125C216.878 39.8295 216.048 40.3788 215.048 40.7727C214.056 41.1591 212.923 41.3523 211.651 41.3523ZM222.909 41V23.5455H226.193V26.3182H226.375C226.693 25.3788 227.254 24.6402 228.057 24.1023C228.867 23.5568 229.784 23.2841 230.807 23.2841C231.019 23.2841 231.269 23.2917 231.557 23.3068C231.852 23.322 232.083 23.3409 232.25 23.3636V26.6136C232.114 26.5758 231.871 26.5341 231.523 26.4886C231.174 26.4356 230.826 26.4091 230.477 26.4091C229.674 26.4091 228.958 26.5795 228.33 26.9205C227.708 27.2538 227.216 27.7197 226.852 28.3182C226.489 28.9091 226.307 29.5833 226.307 30.3409V41H222.909ZM241.918 41.3523C240.228 41.3523 238.774 40.9697 237.554 40.2045C236.342 39.4318 235.41 38.3674 234.759 37.0114C234.107 35.6553 233.781 34.1023 233.781 32.3523C233.781 30.5795 234.115 29.0152 234.781 27.6591C235.448 26.2955 236.387 25.2311 237.599 24.4659C238.812 23.7008 240.24 23.3182 241.884 23.3182C243.209 23.3182 244.391 23.5644 245.429 24.0568C246.467 24.5417 247.304 25.2235 247.94 26.1023C248.584 26.9811 248.967 28.0076 249.088 29.1818H245.781C245.599 28.3636 245.183 27.6591 244.531 27.0682C243.887 26.4773 243.024 26.1818 241.94 26.1818C240.993 26.1818 240.164 26.4318 239.452 26.9318C238.747 27.4242 238.198 28.1288 237.804 29.0455C237.41 29.9545 237.213 31.0303 237.213 32.2727C237.213 33.5455 237.406 34.6439 237.793 35.5682C238.179 36.4924 238.724 37.2083 239.429 37.7159C240.141 38.2235 240.978 38.4773 241.94 38.4773C242.584 38.4773 243.168 38.3598 243.69 38.125C244.221 37.8826 244.664 37.5379 245.02 37.0909C245.384 36.6439 245.637 36.1061 245.781 35.4773H249.088C248.967 36.6061 248.599 37.6136 247.986 38.5C247.372 39.3864 246.55 40.0833 245.52 40.5909C244.497 41.0985 243.296 41.3523 241.918 41.3523ZM252.722 41V23.5455H256.119V41H252.722ZM254.438 20.8523C253.847 20.8523 253.339 20.6553 252.915 20.2614C252.498 19.8598 252.29 19.3826 252.29 18.8295C252.29 18.2689 252.498 17.7917 252.915 17.3977C253.339 16.9962 253.847 16.7955 254.438 16.7955C255.028 16.7955 255.532 16.9962 255.949 17.3977C256.373 17.7917 256.585 18.2689 256.585 18.8295C256.585 19.3826 256.373 19.8598 255.949 20.2614C255.532 20.6553 255.028 20.8523 254.438 20.8523ZM273.77 27.8068L270.69 28.3523C270.562 27.9583 270.357 27.5833 270.077 27.2273C269.804 26.8712 269.433 26.5795 268.963 26.3523C268.493 26.125 267.906 26.0114 267.202 26.0114C266.24 26.0114 265.437 26.2273 264.793 26.6591C264.149 27.0833 263.827 27.6326 263.827 28.3068C263.827 28.8902 264.043 29.3598 264.474 29.7159C264.906 30.072 265.603 30.3636 266.565 30.5909L269.338 31.2273C270.944 31.5985 272.141 32.1705 272.929 32.9432C273.717 33.7159 274.111 34.7197 274.111 35.9545C274.111 37 273.808 37.9318 273.202 38.75C272.603 39.5606 271.766 40.197 270.69 40.6591C269.622 41.1212 268.384 41.3523 266.974 41.3523C265.02 41.3523 263.425 40.9356 262.19 40.1023C260.955 39.2614 260.198 38.0682 259.918 36.5227L263.202 36.0227C263.406 36.8788 263.827 37.5265 264.463 37.9659C265.099 38.3977 265.929 38.6136 266.952 38.6136C268.065 38.6136 268.955 38.3826 269.622 37.9205C270.289 37.4508 270.622 36.8788 270.622 36.2045C270.622 35.6591 270.418 35.2008 270.009 34.8295C269.607 34.4583 268.99 34.178 268.156 33.9886L265.202 33.3409C263.573 32.9697 262.368 32.3788 261.588 31.5682C260.815 30.7576 260.429 29.7311 260.429 28.4886C260.429 27.4583 260.717 26.5568 261.293 25.7841C261.868 25.0114 262.664 24.4091 263.679 23.9773C264.694 23.5379 265.857 23.3182 267.168 23.3182C269.054 23.3182 270.539 23.7273 271.622 24.5455C272.705 25.3561 273.421 26.4432 273.77 27.8068ZM285.369 41.3523C283.65 41.3523 282.169 40.9848 280.926 40.25C279.691 39.5076 278.737 38.4659 278.062 37.125C277.396 35.7765 277.062 34.197 277.062 32.3864C277.062 30.5985 277.396 29.0227 278.062 27.6591C278.737 26.2955 279.676 25.2311 280.881 24.4659C282.093 23.7008 283.509 23.3182 285.131 23.3182C286.116 23.3182 287.07 23.4811 287.994 23.8068C288.919 24.1326 289.748 24.6439 290.483 25.3409C291.218 26.0379 291.797 26.9432 292.222 28.0568C292.646 29.1629 292.858 30.5076 292.858 32.0909V33.2955H278.983V30.75H289.528C289.528 29.8561 289.347 29.0644 288.983 28.375C288.619 27.678 288.108 27.1288 287.449 26.7273C286.797 26.3258 286.032 26.125 285.153 26.125C284.199 26.125 283.366 26.3598 282.653 26.8295C281.949 27.2917 281.403 27.8977 281.017 28.6477C280.638 29.3902 280.449 30.197 280.449 31.0682V33.0568C280.449 34.2235 280.653 35.2159 281.062 36.0341C281.479 36.8523 282.059 37.4773 282.801 37.9091C283.544 38.3333 284.411 38.5455 285.403 38.5455C286.047 38.5455 286.634 38.4545 287.165 38.2727C287.695 38.0833 288.153 37.803 288.54 37.4318C288.926 37.0606 289.222 36.6023 289.426 36.0568L292.642 36.6364C292.384 37.5833 291.922 38.4129 291.256 39.125C290.597 39.8295 289.767 40.3788 288.767 40.7727C287.775 41.1591 286.642 41.3523 285.369 41.3523Z" fill="#3B72B3"/>
</svg>
