<svg width="303" height="35" viewBox="0 0 303 35" fill="none" xmlns="http://www.w3.org/2000/svg">
<g clip-path="url(#clip0_212_497)">
<path d="M8.00284 27.5L0.741477 1.31818H4.89631L9.99716 21.5938H10.2401L15.5455 1.31818H19.6619L24.9673 21.6065H25.2102L30.2983 1.31818H34.4659L27.1918 27.5H23.2159L17.706 7.8892H17.5014L11.9915 27.5H8.00284ZM44.0987 27.8963C42.2578 27.8963 40.6513 27.4744 39.2791 26.6307C37.907 25.7869 36.8416 24.6065 36.0831 23.0895C35.3246 21.5724 34.9453 19.7997 34.9453 17.7713C34.9453 15.7344 35.3246 13.9531 36.0831 12.4276C36.8416 10.902 37.907 9.71733 39.2791 8.87358C40.6513 8.02983 42.2578 7.60795 44.0987 7.60795C45.9396 7.60795 47.5462 8.02983 48.9183 8.87358C50.2905 9.71733 51.3558 10.902 52.1143 12.4276C52.8729 13.9531 53.2521 15.7344 53.2521 17.7713C53.2521 19.7997 52.8729 21.5724 52.1143 23.0895C51.3558 24.6065 50.2905 25.7869 48.9183 26.6307C47.5462 27.4744 45.9396 27.8963 44.0987 27.8963ZM44.1115 24.6875C45.3047 24.6875 46.2933 24.3722 47.0774 23.7415C47.8615 23.1108 48.4411 22.2713 48.8161 21.223C49.1996 20.1747 49.3913 19.0199 49.3913 17.7585C49.3913 16.5057 49.1996 15.3551 48.8161 14.3068C48.4411 13.25 47.8615 12.402 47.0774 11.7628C46.2933 11.1236 45.3047 10.804 44.1115 10.804C42.9098 10.804 41.9126 11.1236 41.12 11.7628C40.3359 12.402 39.7521 13.25 39.3686 14.3068C38.9936 15.3551 38.8061 16.5057 38.8061 17.7585C38.8061 19.0199 38.9936 20.1747 39.3686 21.223C39.7521 22.2713 40.3359 23.1108 41.12 23.7415C41.9126 24.3722 42.9098 24.6875 44.1115 24.6875ZM57.5188 27.5V7.86364H61.2134V10.983H61.418C61.7759 9.92614 62.4066 9.09517 63.31 8.49006C64.2219 7.87642 65.2532 7.5696 66.4038 7.5696C66.6424 7.5696 66.9237 7.57812 67.2475 7.59517C67.5799 7.61221 67.8398 7.63352 68.0273 7.65909V11.3153C67.8739 11.2727 67.6012 11.2259 67.2092 11.1747C66.8171 11.1151 66.4251 11.0852 66.033 11.0852C65.1296 11.0852 64.3242 11.277 63.6168 11.6605C62.918 12.0355 62.364 12.5597 61.9549 13.233C61.5458 13.8977 61.3413 14.6562 61.3413 15.5085V27.5H57.5188ZM74.8509 20.8395L74.8253 16.1733H75.4901L83.3139 7.86364H87.8906L78.9673 17.3239H78.3665L74.8509 20.8395ZM71.3352 27.5V1.31818H75.1577V27.5H71.3352ZM83.7358 27.5L76.7045 18.1676L79.3381 15.4957L88.4276 27.5H83.7358ZM98.837 27.8963C96.9961 27.8963 95.3896 27.4744 94.0174 26.6307C92.6452 25.7869 91.5799 24.6065 90.8214 23.0895C90.0629 21.5724 89.6836 19.7997 89.6836 17.7713C89.6836 15.7344 90.0629 13.9531 90.8214 12.4276C91.5799 10.902 92.6452 9.71733 94.0174 8.87358C95.3896 8.02983 96.9961 7.60795 98.837 7.60795C100.678 7.60795 102.284 8.02983 103.657 8.87358C105.029 9.71733 106.094 10.902 106.853 12.4276C107.611 13.9531 107.99 15.7344 107.99 17.7713C107.99 19.7997 107.611 21.5724 106.853 23.0895C106.094 24.6065 105.029 25.7869 103.657 26.6307C102.284 27.4744 100.678 27.8963 98.837 27.8963ZM98.8498 24.6875C100.043 24.6875 101.032 24.3722 101.816 23.7415C102.6 23.1108 103.179 22.2713 103.554 21.223C103.938 20.1747 104.13 19.0199 104.13 17.7585C104.13 16.5057 103.938 15.3551 103.554 14.3068C103.179 13.25 102.6 12.402 101.816 11.7628C101.032 11.1236 100.043 10.804 98.8498 10.804C97.6481 10.804 96.6509 11.1236 95.8583 11.7628C95.0742 12.402 94.4904 13.25 94.1069 14.3068C93.7319 15.3551 93.5444 16.5057 93.5444 17.7585C93.5444 19.0199 93.7319 20.1747 94.1069 21.223C94.4904 22.2713 95.0742 23.1108 95.8583 23.7415C96.6509 24.3722 97.6481 24.6875 98.8498 24.6875ZM124.696 19.3565V7.86364H128.531V27.5H124.773V24.0994H124.568C124.116 25.1477 123.392 26.0213 122.395 26.7202C121.406 27.4105 120.175 27.7557 118.7 27.7557C117.439 27.7557 116.322 27.4787 115.351 26.9247C114.388 26.3622 113.629 25.5312 113.075 24.4318C112.53 23.3324 112.257 21.973 112.257 20.3537V7.86364H116.08V19.8935C116.08 21.2315 116.45 22.2969 117.192 23.0895C117.933 23.8821 118.896 24.2784 120.081 24.2784C120.797 24.2784 121.509 24.0994 122.216 23.7415C122.932 23.3835 123.524 22.8423 123.993 22.1179C124.47 21.3935 124.705 20.473 124.696 19.3565ZM142.833 7.86364V10.9318H132.108V7.86364H142.833ZM134.984 3.15909H138.806V21.7344C138.806 22.4759 138.917 23.0341 139.139 23.4091C139.36 23.7756 139.646 24.027 139.995 24.1634C140.353 24.2912 140.741 24.3551 141.159 24.3551C141.466 24.3551 141.734 24.3338 141.964 24.2912C142.194 24.2486 142.373 24.2145 142.501 24.1889L143.191 27.3466C142.97 27.4318 142.654 27.517 142.245 27.6023C141.836 27.696 141.325 27.7472 140.711 27.7557C139.706 27.7727 138.768 27.5938 137.899 27.2188C137.029 26.8438 136.326 26.2642 135.789 25.4801C135.252 24.696 134.984 23.7116 134.984 22.527V3.15909ZM161.46 12.6577L157.995 13.2713C157.85 12.8281 157.62 12.4062 157.305 12.0057C156.998 11.6051 156.581 11.277 156.052 11.0213C155.524 10.7656 154.863 10.6378 154.071 10.6378C152.988 10.6378 152.085 10.8807 151.36 11.3665C150.636 11.8437 150.274 12.4616 150.274 13.2202C150.274 13.8764 150.517 14.4048 151.002 14.8054C151.488 15.206 152.272 15.5341 153.355 15.7898L156.474 16.5057C158.281 16.9233 159.627 17.5668 160.514 18.4361C161.4 19.3054 161.843 20.4347 161.843 21.8239C161.843 23 161.502 24.0483 160.821 24.9688C160.147 25.8807 159.206 26.5966 157.995 27.1165C156.794 27.6364 155.4 27.8963 153.815 27.8963C151.616 27.8963 149.822 27.4276 148.433 26.4901C147.044 25.544 146.191 24.2017 145.876 22.4631L149.571 21.9006C149.801 22.8636 150.274 23.5923 150.99 24.0866C151.706 24.5724 152.639 24.8153 153.789 24.8153C155.042 24.8153 156.044 24.5554 156.794 24.0355C157.544 23.5071 157.919 22.8636 157.919 22.1051C157.919 21.4915 157.689 20.9759 157.228 20.5582C156.777 20.1406 156.082 19.8253 155.145 19.6122L151.821 18.8835C149.988 18.4659 148.633 17.8011 147.755 16.8892C146.886 15.9773 146.451 14.8224 146.451 13.4247C146.451 12.2656 146.775 11.2514 147.423 10.3821C148.071 9.51278 148.966 8.83523 150.108 8.34943C151.25 7.85511 152.558 7.60795 154.032 7.60795C156.154 7.60795 157.825 8.06818 159.044 8.98864C160.262 9.90057 161.068 11.1236 161.46 12.6577Z" fill="#FFC149"/>
<path d="M197.626 9.83239H193.637C193.484 8.98011 193.199 8.23011 192.781 7.58239C192.363 6.93466 191.852 6.38494 191.247 5.93324C190.642 5.48153 189.964 5.14062 189.214 4.91051C188.473 4.6804 187.684 4.56534 186.849 4.56534C185.341 4.56534 183.99 4.9446 182.797 5.70312C181.612 6.46165 180.674 7.57386 179.984 9.03977C179.302 10.5057 178.961 12.2955 178.961 14.4091C178.961 16.5398 179.302 18.3381 179.984 19.804C180.674 21.2699 181.616 22.3778 182.809 23.1278C184.002 23.8778 185.345 24.2528 186.836 24.2528C187.663 24.2528 188.447 24.142 189.189 23.9205C189.939 23.6903 190.616 23.3537 191.221 22.9105C191.826 22.4673 192.338 21.9261 192.755 21.2869C193.181 20.6392 193.475 19.8977 193.637 19.0625L197.626 19.0753C197.413 20.3622 197 21.5469 196.386 22.6293C195.781 23.7031 195.001 24.6321 194.047 25.4162C193.1 26.1918 192.018 26.7926 190.799 27.2188C189.581 27.6449 188.251 27.858 186.811 27.858C184.544 27.858 182.524 27.321 180.751 26.2472C178.978 25.1648 177.581 23.6179 176.558 21.6065C175.544 19.5952 175.037 17.196 175.037 14.4091C175.037 11.6136 175.548 9.21449 176.571 7.21165C177.593 5.20028 178.991 3.65767 180.764 2.58381C182.537 1.50142 184.552 0.960226 186.811 0.960226C188.2 0.960226 189.495 1.16051 190.697 1.56108C191.907 1.95312 192.994 2.53267 193.957 3.29972C194.92 4.05824 195.717 4.98722 196.348 6.08665C196.978 7.17756 197.404 8.42614 197.626 9.83239ZM202.046 27.5V7.86364H205.741V10.983H205.945C206.303 9.92614 206.934 9.09517 207.837 8.49006C208.749 7.87642 209.781 7.5696 210.931 7.5696C211.17 7.5696 211.451 7.57812 211.775 7.59517C212.107 7.61221 212.367 7.63352 212.555 7.65909V11.3153C212.401 11.2727 212.129 11.2259 211.737 11.1747C211.344 11.1151 210.952 11.0852 210.56 11.0852C209.657 11.0852 208.852 11.277 208.144 11.6605C207.445 12.0355 206.891 12.5597 206.482 13.233C206.073 13.8977 205.869 14.6562 205.869 15.5085V27.5H202.046ZM223.623 27.8963C221.688 27.8963 220.022 27.483 218.624 26.6562C217.235 25.821 216.161 24.6491 215.402 23.1406C214.652 21.6236 214.277 19.8466 214.277 17.8097C214.277 15.7983 214.652 14.0256 215.402 12.4915C216.161 10.9574 217.218 9.75994 218.573 8.89915C219.936 8.03835 221.53 7.60795 223.354 7.60795C224.462 7.60795 225.536 7.79119 226.576 8.15767C227.615 8.52415 228.549 9.09943 229.375 9.88352C230.202 10.6676 230.854 11.6861 231.331 12.9389C231.809 14.1832 232.047 15.696 232.047 17.4773V18.8324H216.438V15.9688H228.301C228.301 14.9631 228.097 14.0724 227.688 13.2969C227.279 12.5128 226.703 11.8949 225.962 11.4432C225.229 10.9915 224.368 10.7656 223.38 10.7656C222.306 10.7656 221.368 11.0298 220.567 11.5582C219.775 12.0781 219.161 12.7599 218.726 13.6037C218.3 14.4389 218.087 15.3466 218.087 16.3267V18.5639C218.087 19.8764 218.317 20.9929 218.777 21.9134C219.246 22.8338 219.898 23.5369 220.733 24.0227C221.569 24.5 222.544 24.7386 223.661 24.7386C224.385 24.7386 225.046 24.6364 225.642 24.4318C226.239 24.2187 226.755 23.9034 227.189 23.4858C227.624 23.0682 227.956 22.5526 228.186 21.9389L231.804 22.5909C231.515 23.6562 230.995 24.5895 230.245 25.3906C229.503 26.1832 228.57 26.8011 227.445 27.2443C226.328 27.679 225.054 27.8963 223.623 27.8963ZM242.003 27.9347C240.759 27.9347 239.634 27.7045 238.628 27.2443C237.622 26.7756 236.825 26.098 236.237 25.2116C235.658 24.3253 235.368 23.2386 235.368 21.9517C235.368 20.8437 235.581 19.9318 236.007 19.2159C236.433 18.5 237.009 17.9332 237.733 17.5156C238.457 17.098 239.267 16.7827 240.162 16.5696C241.057 16.3565 241.969 16.1946 242.898 16.0838C244.074 15.9474 245.028 15.8366 245.761 15.7514C246.494 15.6577 247.027 15.5085 247.359 15.304C247.692 15.0994 247.858 14.767 247.858 14.3068V14.2173C247.858 13.1009 247.543 12.2358 246.912 11.6222C246.29 11.0085 245.361 10.7017 244.125 10.7017C242.838 10.7017 241.824 10.9872 241.082 11.5582C240.349 12.1207 239.842 12.7472 239.561 13.4375L235.969 12.6193C236.395 11.4261 237.017 10.4631 237.835 9.73011C238.662 8.98864 239.612 8.4517 240.686 8.11932C241.76 7.77841 242.889 7.60795 244.074 7.60795C244.858 7.60795 245.689 7.7017 246.567 7.8892C247.453 8.06818 248.28 8.40057 249.047 8.88636C249.822 9.37216 250.457 10.0668 250.952 10.9702C251.446 11.8651 251.693 13.0284 251.693 14.4602V27.5H247.96V24.8153H247.807C247.56 25.3097 247.189 25.7955 246.695 26.2727C246.2 26.75 245.565 27.1463 244.79 27.4616C244.014 27.777 243.085 27.9347 242.003 27.9347ZM242.834 24.8665C243.891 24.8665 244.794 24.6577 245.544 24.2401C246.303 23.8224 246.878 23.277 247.27 22.6037C247.67 21.9219 247.871 21.1932 247.871 20.4176V17.8864C247.734 18.0227 247.47 18.1506 247.078 18.2699C246.695 18.3807 246.256 18.4787 245.761 18.5639C245.267 18.6406 244.786 18.7131 244.317 18.7812C243.848 18.8409 243.456 18.892 243.141 18.9347C242.399 19.0284 241.722 19.1861 241.108 19.4077C240.503 19.6293 240.017 19.9489 239.651 20.3665C239.293 20.7756 239.114 21.321 239.114 22.0028C239.114 22.9489 239.463 23.6648 240.162 24.1506C240.861 24.6278 241.751 24.8665 242.834 24.8665ZM265.951 7.86364V10.9318H255.225V7.86364H265.951ZM258.101 3.15909H261.924V21.7344C261.924 22.4759 262.034 23.0341 262.256 23.4091C262.478 23.7756 262.763 24.027 263.113 24.1634C263.471 24.2912 263.858 24.3551 264.276 24.3551C264.583 24.3551 264.851 24.3338 265.081 24.2912C265.311 24.2486 265.49 24.2145 265.618 24.1889L266.309 27.3466C266.087 27.4318 265.772 27.517 265.363 27.6023C264.953 27.696 264.442 27.7472 263.828 27.7557C262.823 27.7727 261.885 27.5938 261.016 27.2188C260.147 26.8438 259.444 26.2642 258.907 25.4801C258.37 24.696 258.101 23.7116 258.101 22.527V3.15909ZM278.239 27.8963C276.398 27.8963 274.792 27.4744 273.42 26.6307C272.048 25.7869 270.982 24.6065 270.224 23.0895C269.465 21.5724 269.086 19.7997 269.086 17.7713C269.086 15.7344 269.465 13.9531 270.224 12.4276C270.982 10.902 272.048 9.71733 273.42 8.87358C274.792 8.02983 276.398 7.60795 278.239 7.60795C280.08 7.60795 281.687 8.02983 283.059 8.87358C284.431 9.71733 285.496 10.902 286.255 12.4276C287.013 13.9531 287.393 15.7344 287.393 17.7713C287.393 19.7997 287.013 21.5724 286.255 23.0895C285.496 24.6065 284.431 25.7869 283.059 26.6307C281.687 27.4744 280.08 27.8963 278.239 27.8963ZM278.252 24.6875C279.445 24.6875 280.434 24.3722 281.218 23.7415C282.002 23.1108 282.582 22.2713 282.957 21.223C283.34 20.1747 283.532 19.0199 283.532 17.7585C283.532 16.5057 283.34 15.3551 282.957 14.3068C282.582 13.25 282.002 12.402 281.218 11.7628C280.434 11.1236 279.445 10.804 278.252 10.804C277.05 10.804 276.053 11.1236 275.261 11.7628C274.477 12.402 273.893 13.25 273.509 14.3068C273.134 15.3551 272.947 16.5057 272.947 17.7585C272.947 19.0199 273.134 20.1747 273.509 21.223C273.893 22.2713 274.477 23.1108 275.261 23.7415C276.053 24.3722 277.05 24.6875 278.252 24.6875ZM291.659 27.5V7.86364H295.354V10.983H295.559C295.917 9.92614 296.547 9.09517 297.451 8.49006C298.363 7.87642 299.394 7.5696 300.544 7.5696C300.783 7.5696 301.064 7.57812 301.388 7.59517C301.721 7.61221 301.98 7.63352 302.168 7.65909V11.3153C302.015 11.2727 301.742 11.2259 301.35 11.1747C300.958 11.1151 300.566 11.0852 300.174 11.0852C299.27 11.0852 298.465 11.277 297.757 11.6605C297.059 12.0355 296.505 12.5597 296.096 13.233C295.686 13.8977 295.482 14.6562 295.482 15.5085V27.5H291.659Z" fill="#F6FAFF"/>
</g>
<defs>
<clipPath id="clip0_212_497">
<rect width="303" height="36" fill="white" transform="translate(0 -0.5)"/>
</clipPath>
</defs>
</svg>
