<svg width="295" height="254" viewBox="0 0 295 254" fill="none" xmlns="http://www.w3.org/2000/svg">
<path d="M68.5939 194.575H65.0484C64.912 193.817 64.6582 193.15 64.287 192.575C63.9158 191.999 63.4613 191.51 62.9234 191.109C62.3855 190.707 61.7832 190.404 61.1166 190.2C60.4575 189.995 59.7567 189.893 59.0143 189.893C57.6734 189.893 56.4726 190.23 55.412 190.904C54.359 191.578 53.5257 192.567 52.912 193.87C52.306 195.173 52.0029 196.764 52.0029 198.643C52.0029 200.537 52.306 202.135 52.912 203.438C53.5257 204.741 54.3628 205.726 55.4234 206.393C56.484 207.059 57.6772 207.393 59.0029 207.393C59.7378 207.393 60.4348 207.294 61.0939 207.097C61.7605 206.893 62.3628 206.593 62.9007 206.2C63.4385 205.806 63.8931 205.325 64.2643 204.756C64.6431 204.181 64.9045 203.521 65.0484 202.779L68.5939 202.79C68.4045 203.934 68.037 204.987 67.4916 205.95C66.9537 206.904 66.2605 207.73 65.412 208.427C64.5711 209.116 63.609 209.65 62.5257 210.029C61.4423 210.408 60.2605 210.597 58.9802 210.597C56.9651 210.597 55.1696 210.12 53.5939 209.165C52.0181 208.203 50.7757 206.828 49.8666 205.04C48.9651 203.253 48.5143 201.12 48.5143 198.643C48.5143 196.158 48.9689 194.025 49.8779 192.245C50.787 190.457 52.0295 189.086 53.6052 188.131C55.181 187.169 56.9726 186.688 58.9802 186.688C60.2151 186.688 61.3666 186.866 62.4348 187.222C63.5105 187.571 64.4764 188.086 65.3325 188.768C66.1886 189.442 66.8969 190.268 67.4575 191.245C68.0181 192.215 68.3969 193.325 68.5939 194.575ZM72.5228 210.279V192.825H75.8069V195.597H75.9887C76.3069 194.658 76.8675 193.919 77.6706 193.381C78.4812 192.836 79.3978 192.563 80.4206 192.563C80.6327 192.563 80.8827 192.571 81.1706 192.586C81.466 192.601 81.6971 192.62 81.8637 192.643V195.893C81.7274 195.855 81.485 195.813 81.1365 195.768C80.788 195.715 80.4395 195.688 80.091 195.688C79.288 195.688 78.5721 195.859 77.9433 196.2C77.3221 196.533 76.8296 196.999 76.466 197.597C76.1024 198.188 75.9206 198.862 75.9206 199.62V210.279H72.5228ZM91.7018 210.631C89.9821 210.631 88.501 210.264 87.2586 209.529C86.0238 208.787 85.0692 207.745 84.395 206.404C83.7283 205.056 83.395 203.476 83.395 201.665C83.395 199.878 83.7283 198.302 84.395 196.938C85.0692 195.575 86.0086 194.51 87.2132 193.745C88.4253 192.98 89.842 192.597 91.4632 192.597C92.448 192.597 93.4026 192.76 94.3268 193.086C95.251 193.412 96.0806 193.923 96.8154 194.62C97.5503 195.317 98.1298 196.222 98.5541 197.336C98.9783 198.442 99.1904 199.787 99.1904 201.37V202.575H85.3154V200.029H95.8609C95.8609 199.135 95.6791 198.343 95.3154 197.654C94.9518 196.957 94.4404 196.408 93.7814 196.006C93.1298 195.605 92.3647 195.404 91.4859 195.404C90.5314 195.404 89.698 195.639 88.9859 196.109C88.2814 196.571 87.7359 197.177 87.3495 197.927C86.9707 198.669 86.7814 199.476 86.7814 200.347V202.336C86.7814 203.503 86.9859 204.495 87.395 205.313C87.8117 206.131 88.3912 206.756 89.1336 207.188C89.876 207.612 90.7435 207.825 91.7359 207.825C92.3798 207.825 92.967 207.734 93.4973 207.552C94.0276 207.362 94.4859 207.082 94.8723 206.711C95.2586 206.34 95.5541 205.881 95.7586 205.336L98.9745 205.915C98.717 206.862 98.2548 207.692 97.5882 208.404C96.9291 209.109 96.0995 209.658 95.0995 210.052C94.1071 210.438 92.9745 210.631 91.7018 210.631ZM108.04 210.665C106.934 210.665 105.934 210.461 105.04 210.052C104.146 209.635 103.438 209.033 102.915 208.245C102.4 207.457 102.142 206.491 102.142 205.347C102.142 204.362 102.332 203.552 102.71 202.915C103.089 202.279 103.6 201.775 104.244 201.404C104.888 201.033 105.608 200.753 106.404 200.563C107.199 200.374 108.01 200.23 108.835 200.131C109.881 200.01 110.729 199.912 111.381 199.836C112.032 199.753 112.506 199.62 112.801 199.438C113.097 199.256 113.244 198.961 113.244 198.552V198.472C113.244 197.48 112.964 196.711 112.404 196.165C111.85 195.62 111.025 195.347 109.926 195.347C108.782 195.347 107.881 195.601 107.222 196.109C106.57 196.609 106.119 197.165 105.869 197.779L102.676 197.052C103.055 195.991 103.608 195.135 104.335 194.484C105.07 193.825 105.915 193.347 106.869 193.052C107.824 192.749 108.828 192.597 109.881 192.597C110.578 192.597 111.316 192.681 112.097 192.847C112.885 193.006 113.619 193.302 114.301 193.734C114.991 194.165 115.555 194.783 115.994 195.586C116.434 196.381 116.654 197.415 116.654 198.688V210.279H113.335V207.893H113.199C112.979 208.332 112.65 208.764 112.21 209.188C111.771 209.612 111.207 209.965 110.517 210.245C109.828 210.525 109.002 210.665 108.04 210.665ZM108.779 207.938C109.718 207.938 110.521 207.753 111.188 207.381C111.862 207.01 112.373 206.525 112.722 205.927C113.078 205.321 113.256 204.673 113.256 203.984V201.734C113.135 201.855 112.9 201.968 112.551 202.075C112.21 202.173 111.82 202.26 111.381 202.336C110.941 202.404 110.513 202.468 110.097 202.529C109.68 202.582 109.332 202.628 109.051 202.665C108.392 202.749 107.79 202.889 107.244 203.086C106.707 203.283 106.275 203.567 105.949 203.938C105.631 204.302 105.472 204.787 105.472 205.393C105.472 206.234 105.782 206.87 106.404 207.302C107.025 207.726 107.816 207.938 108.779 207.938ZM129.327 192.825V195.552H119.793V192.825H129.327ZM122.35 188.643H125.747V205.154C125.747 205.813 125.846 206.309 126.043 206.643C126.24 206.968 126.493 207.192 126.804 207.313C127.122 207.427 127.467 207.484 127.838 207.484C128.111 207.484 128.35 207.465 128.554 207.427C128.759 207.389 128.918 207.359 129.031 207.336L129.645 210.143C129.448 210.218 129.168 210.294 128.804 210.37C128.44 210.453 127.986 210.499 127.44 210.506C126.547 210.521 125.713 210.362 124.94 210.029C124.168 209.696 123.543 209.181 123.065 208.484C122.588 207.787 122.35 206.912 122.35 205.859V188.643ZM140.421 210.631C138.701 210.631 137.22 210.264 135.977 209.529C134.743 208.787 133.788 207.745 133.114 206.404C132.447 205.056 132.114 203.476 132.114 201.665C132.114 199.878 132.447 198.302 133.114 196.938C133.788 195.575 134.727 194.51 135.932 193.745C137.144 192.98 138.561 192.597 140.182 192.597C141.167 192.597 142.121 192.76 143.046 193.086C143.97 193.412 144.799 193.923 145.534 194.62C146.269 195.317 146.849 196.222 147.273 197.336C147.697 198.442 147.909 199.787 147.909 201.37V202.575H134.034V200.029H144.58C144.58 199.135 144.398 198.343 144.034 197.654C143.671 196.957 143.159 196.408 142.5 196.006C141.849 195.605 141.083 195.404 140.205 195.404C139.25 195.404 138.417 195.639 137.705 196.109C137 196.571 136.455 197.177 136.068 197.927C135.689 198.669 135.5 199.476 135.5 200.347V202.336C135.5 203.503 135.705 204.495 136.114 205.313C136.53 206.131 137.11 206.756 137.852 207.188C138.595 207.612 139.462 207.825 140.455 207.825C141.099 207.825 141.686 207.734 142.216 207.552C142.746 207.362 143.205 207.082 143.591 206.711C143.977 206.34 144.273 205.881 144.477 205.336L147.693 205.915C147.436 206.862 146.974 207.692 146.307 208.404C145.648 209.109 144.818 209.658 143.818 210.052C142.826 210.438 141.693 210.631 140.421 210.631ZM165.227 210.665C164.121 210.665 163.121 210.461 162.227 210.052C161.333 209.635 160.625 209.033 160.102 208.245C159.587 207.457 159.33 206.491 159.33 205.347C159.33 204.362 159.519 203.552 159.898 202.915C160.277 202.279 160.788 201.775 161.432 201.404C162.076 201.033 162.796 200.753 163.591 200.563C164.386 200.374 165.197 200.23 166.023 200.131C167.068 200.01 167.917 199.912 168.568 199.836C169.22 199.753 169.693 199.62 169.989 199.438C170.284 199.256 170.432 198.961 170.432 198.552V198.472C170.432 197.48 170.152 196.711 169.591 196.165C169.038 195.62 168.212 195.347 167.114 195.347C165.97 195.347 165.068 195.601 164.409 196.109C163.758 196.609 163.307 197.165 163.057 197.779L159.864 197.052C160.243 195.991 160.796 195.135 161.523 194.484C162.258 193.825 163.102 193.347 164.057 193.052C165.011 192.749 166.015 192.597 167.068 192.597C167.765 192.597 168.504 192.681 169.284 192.847C170.072 193.006 170.807 193.302 171.489 193.734C172.178 194.165 172.743 194.783 173.182 195.586C173.621 196.381 173.841 197.415 173.841 198.688V210.279H170.523V207.893H170.386C170.167 208.332 169.837 208.764 169.398 209.188C168.958 209.612 168.394 209.965 167.705 210.245C167.015 210.525 166.189 210.665 165.227 210.665ZM165.966 207.938C166.905 207.938 167.708 207.753 168.375 207.381C169.049 207.01 169.561 206.525 169.909 205.927C170.265 205.321 170.443 204.673 170.443 203.984V201.734C170.322 201.855 170.087 201.968 169.739 202.075C169.398 202.173 169.008 202.26 168.568 202.336C168.129 202.404 167.701 202.468 167.284 202.529C166.868 202.582 166.519 202.628 166.239 202.665C165.58 202.749 164.977 202.889 164.432 203.086C163.894 203.283 163.462 203.567 163.136 203.938C162.818 204.302 162.659 204.787 162.659 205.393C162.659 206.234 162.97 206.87 163.591 207.302C164.212 207.726 165.004 207.938 165.966 207.938ZM190.233 199.915V210.279H186.835V192.825H190.097V195.665H190.313C190.714 194.741 191.343 193.999 192.199 193.438C193.063 192.878 194.15 192.597 195.46 192.597C196.65 192.597 197.691 192.847 198.585 193.347C199.479 193.84 200.172 194.575 200.665 195.552C201.157 196.529 201.404 197.737 201.404 199.177V210.279H198.006V199.586C198.006 198.321 197.676 197.332 197.017 196.62C196.358 195.9 195.453 195.54 194.301 195.54C193.513 195.54 192.813 195.711 192.199 196.052C191.593 196.393 191.112 196.893 190.756 197.552C190.407 198.203 190.233 198.991 190.233 199.915ZM213.483 210.631C211.763 210.631 210.282 210.264 209.04 209.529C207.805 208.787 206.85 207.745 206.176 206.404C205.51 205.056 205.176 203.476 205.176 201.665C205.176 199.878 205.51 198.302 206.176 196.938C206.85 195.575 207.79 194.51 208.994 193.745C210.207 192.98 211.623 192.597 213.244 192.597C214.229 192.597 215.184 192.76 216.108 193.086C217.032 193.412 217.862 193.923 218.597 194.62C219.332 195.317 219.911 196.222 220.335 197.336C220.76 198.442 220.972 199.787 220.972 201.37V202.575H207.097V200.029H217.642C217.642 199.135 217.46 198.343 217.097 197.654C216.733 196.957 216.222 196.408 215.563 196.006C214.911 195.605 214.146 195.404 213.267 195.404C212.313 195.404 211.479 195.639 210.767 196.109C210.063 196.571 209.517 197.177 209.131 197.927C208.752 198.669 208.563 199.476 208.563 200.347V202.336C208.563 203.503 208.767 204.495 209.176 205.313C209.593 206.131 210.172 206.756 210.915 207.188C211.657 207.612 212.525 207.825 213.517 207.825C214.161 207.825 214.748 207.734 215.279 207.552C215.809 207.362 216.267 207.082 216.654 206.711C217.04 206.34 217.335 205.881 217.54 205.336L220.756 205.915C220.498 206.862 220.036 207.692 219.369 208.404C218.71 209.109 217.881 209.658 216.881 210.052C215.888 210.438 214.756 210.631 213.483 210.631ZM228.494 210.279L223.358 192.825H226.869L230.29 205.643H230.46L233.892 192.825H237.404L240.813 205.586H240.983L244.381 192.825H247.892L242.767 210.279H239.301L235.756 197.677H235.494L231.949 210.279H228.494ZM91.4632 249.279L86.3268 231.825H89.8382L93.2586 244.643H93.4291L96.8609 231.825H100.372L103.781 244.586H103.952L107.35 231.825H110.861L105.736 249.279H102.27L98.7245 236.677H98.4632L94.9177 249.279H91.4632ZM120.906 249.631C119.27 249.631 117.842 249.256 116.622 248.506C115.403 247.756 114.456 246.707 113.781 245.359C113.107 244.01 112.77 242.434 112.77 240.631C112.77 238.821 113.107 237.237 113.781 235.881C114.456 234.525 115.403 233.472 116.622 232.722C117.842 231.972 119.27 231.597 120.906 231.597C122.543 231.597 123.971 231.972 125.19 232.722C126.41 233.472 127.357 234.525 128.031 235.881C128.706 237.237 129.043 238.821 129.043 240.631C129.043 242.434 128.706 244.01 128.031 245.359C127.357 246.707 126.41 247.756 125.19 248.506C123.971 249.256 122.543 249.631 120.906 249.631ZM120.918 246.779C121.978 246.779 122.857 246.499 123.554 245.938C124.251 245.378 124.766 244.631 125.1 243.7C125.44 242.768 125.611 241.741 125.611 240.62C125.611 239.506 125.44 238.484 125.1 237.552C124.766 236.612 124.251 235.859 123.554 235.29C122.857 234.722 121.978 234.438 120.918 234.438C119.85 234.438 118.963 234.722 118.259 235.29C117.562 235.859 117.043 236.612 116.702 237.552C116.368 238.484 116.202 239.506 116.202 240.62C116.202 241.741 116.368 242.768 116.702 243.7C117.043 244.631 117.562 245.378 118.259 245.938C118.963 246.499 119.85 246.779 120.918 246.779ZM132.835 249.279V231.825H136.119V234.597H136.301C136.619 233.658 137.18 232.919 137.983 232.381C138.794 231.836 139.71 231.563 140.733 231.563C140.945 231.563 141.195 231.571 141.483 231.586C141.779 231.601 142.01 231.62 142.176 231.643V234.893C142.04 234.855 141.797 234.813 141.449 234.768C141.1 234.715 140.752 234.688 140.404 234.688C139.6 234.688 138.885 234.859 138.256 235.2C137.635 235.533 137.142 235.999 136.779 236.597C136.415 237.188 136.233 237.862 136.233 238.62V249.279H132.835ZM148.242 243.359L148.219 239.211H148.81L155.764 231.825H159.832L151.901 240.234H151.367L148.242 243.359ZM145.117 249.279V226.006H148.514V249.279H145.117ZM156.139 249.279L149.889 240.984L152.23 238.609L160.31 249.279H156.139ZM169.563 249.631C167.926 249.631 166.498 249.256 165.279 248.506C164.059 247.756 163.112 246.707 162.438 245.359C161.763 244.01 161.426 242.434 161.426 240.631C161.426 238.821 161.763 237.237 162.438 235.881C163.112 234.525 164.059 233.472 165.279 232.722C166.498 231.972 167.926 231.597 169.563 231.597C171.199 231.597 172.627 231.972 173.847 232.722C175.066 233.472 176.013 234.525 176.688 235.881C177.362 237.237 177.699 238.821 177.699 240.631C177.699 242.434 177.362 244.01 176.688 245.359C176.013 246.707 175.066 247.756 173.847 248.506C172.627 249.256 171.199 249.631 169.563 249.631ZM169.574 246.779C170.635 246.779 171.513 246.499 172.21 245.938C172.907 245.378 173.422 244.631 173.756 243.7C174.097 242.768 174.267 241.741 174.267 240.62C174.267 239.506 174.097 238.484 173.756 237.552C173.422 236.612 172.907 235.859 172.21 235.29C171.513 234.722 170.635 234.438 169.574 234.438C168.506 234.438 167.619 234.722 166.915 235.29C166.218 235.859 165.699 236.612 165.358 237.552C165.025 238.484 164.858 239.506 164.858 240.62C164.858 241.741 165.025 242.768 165.358 243.7C165.699 244.631 166.218 245.378 166.915 245.938C167.619 246.499 168.506 246.779 169.574 246.779ZM192.548 242.04V231.825H195.957V249.279H192.617V246.256H192.435C192.033 247.188 191.389 247.965 190.503 248.586C189.624 249.2 188.529 249.506 187.219 249.506C186.098 249.506 185.105 249.26 184.242 248.768C183.386 248.268 182.711 247.529 182.219 246.552C181.734 245.575 181.492 244.366 181.492 242.927V231.825H184.889V242.518C184.889 243.707 185.219 244.654 185.878 245.359C186.537 246.063 187.393 246.415 188.446 246.415C189.082 246.415 189.715 246.256 190.344 245.938C190.98 245.62 191.507 245.139 191.923 244.495C192.348 243.851 192.556 243.033 192.548 242.04ZM208.671 231.825V234.552H199.136V231.825H208.671ZM201.693 227.643H205.091V244.154C205.091 244.813 205.189 245.309 205.386 245.643C205.583 245.968 205.837 246.192 206.148 246.313C206.466 246.427 206.811 246.484 207.182 246.484C207.455 246.484 207.693 246.465 207.898 246.427C208.102 246.389 208.261 246.359 208.375 246.336L208.989 249.143C208.792 249.218 208.511 249.294 208.148 249.37C207.784 249.453 207.33 249.499 206.784 249.506C205.89 249.521 205.057 249.362 204.284 249.029C203.511 248.696 202.886 248.181 202.409 247.484C201.932 246.787 201.693 245.912 201.693 244.859V227.643Z" fill="#3B72B3"/>
<path d="M175.878 69.4828L120.572 69.4828" stroke="#3B72B3" stroke-width="8.2" stroke-linecap="round"/>
<path d="M148.225 41.8297V97.1362" stroke="#3B72B3" stroke-width="8.2" stroke-linecap="round"/>
</svg>
