<svg width="42" height="42" viewBox="0 0 42 42" fill="none" xmlns="http://www.w3.org/2000/svg">
<path d="M14.7501 29.3333H18.9167V12.6666H14.7501V29.3333ZM21.0001 0.166626C9.50008 0.166626 0.166748 9.49996 0.166748 21C0.166748 32.5 9.50008 41.8333 21.0001 41.8333C32.5001 41.8333 41.8334 32.5 41.8334 21C41.8334 9.49996 32.5001 0.166626 21.0001 0.166626ZM21.0001 37.6666C11.8126 37.6666 4.33341 30.1875 4.33341 21C4.33341 11.8125 11.8126 4.33329 21.0001 4.33329C30.1876 4.33329 37.6667 11.8125 37.6667 21C37.6667 30.1875 30.1876 37.6666 21.0001 37.6666ZM23.0834 29.3333H27.2501V12.6666H23.0834V29.3333Z" fill="#F6FAFF"/>
</svg>
